# xmcd CD database file
#
# Track frame offsets:
#	182
#	13657
#	25042
#	35562
#	47810
#	57832
#	69655
#	80735
#	89940
#	102525
#	115595
#	127785
#	138260
#	150077
#	160235
#
# Disc length: 2285 seconds
#
# Revision: 0
# Processed by: cddbd v1.5.1PL0 Copyright (c) Steve Scherf et al.
# Submitted via: CDex 1.51
#
DISCID=bf08eb0f
DTITLE=Tito Rodriguez - Tito Rodriguez Hits
DYEAR=1975
DGENRE=Salsa
TTITLE0=Cuando, Cuando, Cuando
TTITLE1=No te quedes con las ganas
TTITLE2=Mantequita
TTITLE3=Nunca
TTITLE4=Damela que tu la tienes
TTITLE5=De enero a enero
TTITLE6=Maricusa
TTITLE7=Cara De Payaso
TTITLE8=Celoso
TTITLE9=Piensa en mi
TTITLE10=Ponte en vela
TTITLE11=Bello Amanecer
TTITLE12=Machacalo
TTITLE13=El Lechero
TTITLE14=Vuela la Paloma
EXTD=YEAR: 1975
EXTT0=
EXTT1=
EXTT2=
EXTT3=
EXTT4=
EXTT5=
EXTT6=
EXTT7=
EXTT8=
EXTT9=
EXTT10=
EXTT11=
EXTT12=
EXTT13=
EXTT14=
PLAYORDER=
